<svg xmlns="http://www.w3.org/2000/svg" viewBox="0 0 198 198"><defs><style>.cls-1{isolation:isolate;}.cls-2{fill:#fff;}.cls-3{fill:url(#New_Gradient_Swatch_2);}.cls-4{opacity:0.28;}.cls-5{fill:#f1f2f2;}.cls-6{fill:url(#New_Gradient_Swatch_1);}.cls-7{fill:#27aae1;}.cls-8{opacity:0.27;mix-blend-mode:overlay;}</style><linearGradient id="New_Gradient_Swatch_2" x1="6.11" y1="100.02" x2="190.84" y2="100.02" gradientUnits="userSpaceOnUse"><stop offset="0" stop-color="#29b473"/><stop offset="1" stop-color="#2483c5"/></linearGradient><linearGradient id="New_Gradient_Swatch_1" x1="98.34" y1="179.25" x2="98.34" y2="63.25" gradientUnits="userSpaceOnUse"><stop offset="0.15" stop-color="#29b473"/><stop offset="0.31" stop-color="#27a095"/><stop offset="0.48" stop-color="#2590af"/><stop offset="0.62" stop-color="#2486bf"/><stop offset="0.74" stop-color="#2483c5"/></linearGradient></defs><g class="cls-1"><g id="Layer_1"><circle class="cls-2" cx="98.47" cy="100.02" r="94.06" transform="translate(-20.4 25.38) rotate(-13.32)"/><path class="cls-3" d="M98.47,12.66A87.37,87.37,0,1,1,11.11,100,87.37,87.37,0,0,1,98.47,12.66m0-5A92.37,92.37,0,1,0,190.84,100,92.46,92.46,0,0,0,98.47,7.66Z"/><g class="cls-4"><path class="cls-5" d="M98.47,12.66A87.37,87.37,0,1,1,11.11,100,87.37,87.37,0,0,1,98.47,12.66m0-2A89.37,89.37,0,1,0,187.84,100,89.47,89.47,0,0,0,98.47,10.66Z"/></g><path class="cls-6" d="M154,66.74,105.58,177.59a2.62,2.62,0,0,1-2.32,1.66H93.48c-1.33,0-1.82-.5-2.32-1.83L42.78,66.74a2.37,2.37,0,0,1,2.15-3.49H64.81a4.2,4.2,0,0,1,3.48,2.49l30.16,70.09,29.83-70.09a4.44,4.44,0,0,1,3.48-2.49h20.05A2.48,2.48,0,0,1,154,66.74Z"/><path class="cls-7" d="M125.52,54.47c-.85-.66-19.82-15-19.82-15s-2.41-1.84-3.63-2.75a.64.64,0,0,1-.28-.56c0-2.28-.08-4.57-.14-6.86a35.58,35.58,0,0,0-.43-5,7.16,7.16,0,0,0-.75-2.43,2,2,0,0,0-1.86-1,2,2,0,0,0-1.86,1A7.17,7.17,0,0,0,96,24.23a34.16,34.16,0,0,0-.42,5c-.07,2.29-.1,4.58-.14,6.86a.62.62,0,0,1-.29.56l-3.63,2.75s-19,14.37-19.81,15a3.09,3.09,0,0,0-1.35,2.91c.08.76.11,1.51.16,2.3l1.66-.8,17.27-8.25a4.85,4.85,0,0,1,3.46-.43,3.31,3.31,0,0,1,2.38,2,15.07,15.07,0,0,1,1.07,4.57c.09,1.39.07,2.8.1,4.19q.06,3.1.13,6.18a.53.53,0,0,1-.19.46c-.91.73-1.81,1.47-2.72,2.19-1.12.87-2.26,1.72-3.4,2.58-.31.24-.62.5-1,.72a.64.64,0,0,0-.33.49l-.54,3.3c0,.14,0,.29-.06.47l9.38-2.64c.29.76.56,1.51.84,2.26.28-.75.55-1.5.83-2.26,3.13.89,6.25,1.76,9.39,2.64,0-.18,0-.33-.06-.47l-.54-3.3a.7.7,0,0,0-.33-.49c-.33-.22-.64-.48-1-.72-1.13-.86-2.27-1.71-3.39-2.58-.92-.72-1.81-1.46-2.72-2.19a.49.49,0,0,1-.19-.46c0-2,.09-4.11.13-6.18,0-1.39,0-2.8.09-4.19a15.69,15.69,0,0,1,1.07-4.57,3.35,3.35,0,0,1,2.38-2,4.84,4.84,0,0,1,3.46.43L125,58.88l1.66.8c.06-.79.08-1.54.16-2.3A3.08,3.08,0,0,0,125.52,54.47Z"/><g class="cls-8"><path class="cls-2" d="M107.71,172.76a99.35,99.35,0,0,1-17.9-57v-.09L87.37,110c-.11,1.91-.18,3.84-.18,5.77a102,102,0,0,0,19.3,59.77Z"/><path class="cls-2" d="M69.18,115.78a120.2,120.2,0,0,1,5.36-35.57L73,76.56a122.74,122.74,0,0,0-6.4,39.22c0,1.89.05,3.77.13,5.64l3.17,7.25A122,122,0,0,1,69.18,115.78Z"/><path class="cls-2" d="M110.43,115.78a78.94,78.94,0,0,1,.58-9.4l-3.14,7.37c0,.68-.05,1.35-.05,2a81.36,81.36,0,0,0,8.73,36.73l1.37-3.14A78.81,78.81,0,0,1,110.43,115.78Z"/><path class="cls-2" d="M49.79,82.72l1.77,4.06A139.48,139.48,0,0,1,58.7,63.25H55.88A141,141,0,0,0,49.79,82.72Z"/><path class="cls-2" d="M129.62,64.14a5.19,5.19,0,0,0-1.22,1.43C128.8,65.09,129.21,64.62,129.62,64.14Z"/><path class="cls-2" d="M131.06,115.78a58.56,58.56,0,0,1,21.22-45.13L154,66.74a3.18,3.18,0,0,0,.2-.84A60.94,60.94,0,0,0,129,124l2.14-4.92Q131.06,117.43,131.06,115.78Z"/></g></g></g></svg>